<?xml version="1.0" standalone="no"?><!DOCTYPE svg PUBLIC "-//W3C//DTD SVG 1.1//EN" "http://www.w3.org/Graphics/SVG/1.1/DTD/svg11.dtd"><svg t="1616683650935" class="icon" viewBox="0 0 1024 1024" version="1.1" xmlns="http://www.w3.org/2000/svg" p-id="14139" xmlns:xlink="http://www.w3.org/1999/xlink" width="200" height="200"><defs><style type="text/css"></style></defs><path d="M396.837 529.976c44.464 0 80.51 36.043 80.51 80.505v253.014c0 44.462-36.046 80.505-80.51 80.505H141.51C97.045 944 61 907.957 61 863.495V610.481c0-44.462 36.045-80.505 80.509-80.505h255.328z m487.654 0c44.464 0 80.509 36.043 80.509 80.505v253.014C965 907.957 928.955 944 884.491 944H629.163c-44.464 0-80.51-36.043-80.51-80.505V610.481c0-44.462 36.046-80.505 80.51-80.505H884.49zM396.837 79.15c44.464 0 80.51 36.043 80.51 80.505v253.014c0 44.462-36.046 80.505-80.51 80.505H141.51C97.045 493.174 61 457.131 61 412.669V159.655c0-44.462 36.045-80.505 80.509-80.505h255.328zM884.491 78C928.955 78 965 114.043 965 158.505v253.014c0 44.462-36.045 80.505-80.509 80.505H629.163c-44.464 0-80.51-36.043-80.51-80.505V158.505c0-44.462 36.046-80.505 80.51-80.505H884.49z" fill="#d81e06" p-id="14140"></path></svg>