<?xml version="1.0" standalone="no"?><!DOCTYPE svg PUBLIC "-//W3C//DTD SVG 1.1//EN" "http://www.w3.org/Graphics/SVG/1.1/DTD/svg11.dtd"><svg t="1616683592000" class="icon" viewBox="0 0 1024 1024" version="1.1" xmlns="http://www.w3.org/2000/svg" p-id="7729" xmlns:xlink="http://www.w3.org/1999/xlink" width="200" height="200"><defs><style type="text/css"></style></defs><path d="M936.11008 921.6h-29.02016c0-106.82368-177.13152-389.96992-389.96992-389.96992S127.15008 814.77632 127.15008 921.6H98.12992c0-118.10816 185.8048-418.99008 418.99008-418.99008 233.18528 0 418.99008 300.88192 418.99008 418.99008z" p-id="7730" fill="#d81e06"></path><path d="M517.12 531.63008c-119.52128 0-216.75008-97.2288-216.75008-216.75008S397.59872 98.12992 517.12 98.12992s216.75008 97.23904 216.75008 216.75008S636.64128 531.63008 517.12 531.63008z m0-404.48c-103.51616 0-187.72992 84.21376-187.72992 187.72992S413.60384 502.60992 517.12 502.60992c103.50592 0 187.72992-84.21376 187.72992-187.72992S620.62592 127.15008 517.12 127.15008z" p-id="7731" fill="#d81e06"></path></svg>